<?xml version="1.0" encoding="utf-8"?>
<!-- Generator: Adobe Illustrator 25.1.0, SVG Export Plug-In . SVG Version: 6.00 Build 0)  -->
<svg version="1.1" id="Capa_1" xmlns="http://www.w3.org/2000/svg" xmlns:xlink="http://www.w3.org/1999/xlink" x="0px" y="0px"
	 viewBox="0 0 426 81" style="enable-background:new 0 0 426 81;" xml:space="preserve">
<style type="text/css">
	.st0{fill:#FFFFFF;}
</style>
<g>
	<g id="TextPrimary_1_">
		<g id="TextPrimary">
			<path id="p" class="st0" d="M52.3,13.4c-7.4,0-34.4,0-34.4,0v53.2h14.3v-23h22.2c0,0,5.7-0.2,5.7-6.4c0-6.2,0-17.9,0-17.9
				S59.9,13.4,52.3,13.4z M45.1,34.7H32.4v-9.8h12.7V34.7z"/>
			<path id="r" class="st0" d="M63,13.4v53.2h14.4V24.7l12.8,0.1v9.9H79.5V44l10.6,22.7h15l-10.9-23l5.2-0.1c0,0,5.7-1,5.7-6.5
				s0-17.3,0-17.3s-0.7-6.3-6.3-6.3C93.2,13.4,63,13.4,63,13.4z"/>
			<path id="o" class="st0" d="M144.1,13.4c-5.3,0-28.7,0-28.7,0s-6.9,0.6-7.2,6.2v42.1c0,0,1.3,5.1,7,5c5.7-0.1,28.7,0,28.7,0
				s6.7-0.3,6.7-5.8c0-5.5,0-41.2,0-41.2S149.4,13.4,144.1,13.4z M135.4,55.1h-12.1V24.8h12.1V55.1z"/>
			<polygon id="a" class="st0" points="172.8,13.4 153.5,66.6 167.9,66.6 180.6,31.4 188.4,55.2 176.8,55.2 176.9,66.6 206.8,66.6 
				188.6,13.4 			"/>
			<path id="c" class="st0" d="M210.2,17.7v44.1c0,0,1,4.9,4.3,4.9c3.2,0,33.6,0,33.6,0l4.3-11.6l-27.8,0.1l0.1-30.2h23.4l4.3-11.5
				h-37.5C214.9,13.4,210.2,13.7,210.2,17.7z"/>
			<polygon id="t" class="st0" points="255,13.4 255,24.5 268.9,24.5 268.9,66.6 283.2,66.6 283.2,24.5 297.2,24.4 297.2,13.4 			
				"/>
			<rect id="i" x="300" y="13.4" class="st0" width="14.3" height="53.2"/>
			<polygon id="v" class="st0" points="317,13.4 330.9,66.6 345.4,66.6 359.2,13.4 345,13.4 338.1,40 331.1,13.4 			"/>
			<path id="_x30_" class="st0" d="M397.2,13.4c-5.3,0-28.7,0-28.7,0s-6.9,0.6-7.2,6.2v42.1c0,0,1.3,5.1,7,5c5.7-0.1,28.7,0,28.7,0
				s6.7-0.3,6.7-5.8c0-5.5,0-41.2,0-41.2S402.5,13.4,397.2,13.4z M388.6,55.1h-12.1V24.8h12.1L388.6,55.1L388.6,55.1z"/>
		</g>
	</g>
</g>
</svg>
